<?xml version="1.0" encoding="UTF-8" standalone="no"?>
<!DOCTYPE svg PUBLIC "-//W3C//DTD SVG 1.1//EN" "http://www.w3.org/Graphics/SVG/1.1/DTD/svg11.dtd">
<svg xmlns="http://www.w3.org/2000/svg" version="1.1" viewBox="0.00 0.00 600.00 600.00">
<path fill="#ffffff" d="
  M 86.90 344.47
  A 0.38 0.38 0.0 0 0 87.47 344.73
  L 232.31 261.18
  Q 232.75 260.92 232.75 260.41
  L 232.75 40.74
  Q 232.75 40.18 233.29 40.04
  Q 257.61 33.85 282.65 32.19
  Q 283.16 32.15 283.17 32.67
  C 283.74 107.78 283.04 182.85 283.48 257.92
  C 283.53 266.20 282.96 278.87 283.45 289.39
  Q 283.48 289.92 283.01 290.19
  L 60.07 418.92
  A 0.35 0.35 0.0 0 1 59.59 418.77
  C 2.45 300.87 36.05 162.20 140.84 83.90
  Q 141.54 83.37 141.54 84.25
  Q 141.50 116.66 141.27 149.50
  C 141.27 150.37 141.24 150.95 140.59 151.65
  C 101.65 194.02 80.38 249.53 82.47 307.10
  C 82.91 319.16 84.68 332.13 86.90 344.47
  Z"
/>
<path fill="#ffffff" d="
  M 367.82 141.41
  L 432.07 178.92
  Q 432.40 179.11 432.72 178.92
  L 465.69 159.91
  Q 466.19 159.62 465.82 159.18
  Q 448.86 139.16 427.69 123.67
  Q 427.25 123.35 427.25 122.81
  L 427.25 64.26
  Q 427.25 63.69 427.75 63.97
  Q 490.29 98.32 528.07 159.14
  Q 533.19 167.38 537.92 175.70
  Q 538.26 176.31 537.65 176.67
  L 483.33 208.05
  A 0.46 0.46 0.0 0 0 483.33 208.85
  Q 523.44 232.29 563.26 255.55
  C 564.73 256.41 564.55 256.98 564.77 258.49
  Q 576.83 343.08 540.36 418.62
  Q 540.11 419.15 539.60 418.85
  L 496.88 394.15
  A 0.78 0.77 -63.7 0 1 496.56 393.18
  Q 499.65 385.94 502.57 378.39
  Q 519.73 334.15 517.13 286.71
  A 1.44 1.43 -76.5 0 0 516.42 285.54
  L 433.74 237.74
  A 1.79 1.79 0.0 0 0 431.96 237.74
  L 367.30 275.00
  A 0.59 0.58 -15.0 0 0 367.00 275.51
  L 367.02 318.79
  A 0.22 0.22 0.0 0 1 366.69 318.98
  L 316.94 290.31
  Q 316.50 290.06 316.50 289.55
  L 316.50 246.54
  A 0.88 0.87 75.3 0 1 316.94 245.78
  L 381.81 208.32
  Q 382.28 208.05 381.81 207.78
  L 316.85 170.34
  Q 316.50 170.14 316.50 169.73
  L 316.50 32.74
  Q 316.50 32.19 317.05 32.22
  Q 342.00 33.74 366.20 39.95
  A 1.07 1.06 7.4 0 1 367.00 40.98
  L 367.00 139.99
  Q 367.00 140.93 367.82 141.41
  Z"
/>
<path fill="#ffffff" d="
  M 254.55 512.52
  C 290.59 520.29 329.16 518.13 363.89 507.65
  A 1.37 1.36 51.3 0 1 364.96 507.77
  L 419.04 538.99
  A 0.52 0.52 0.0 0 1 419.00 539.91
  C 296.59 599.51 153.65 560.54 77.00 448.74
  Q 76.42 447.89 77.31 447.37
  L 119.41 423.07
  Q 120.44 422.48 121.13 423.46
  Q 149.54 464.09 192.54 488.74
  Q 193.02 489.02 193.50 488.74
  L 342.93 402.44
  A 0.22 0.21 45.4 0 0 342.93 402.07
  L 250.22 348.49
  A 0.54 0.54 0.0 0 1 250.22 347.56
  L 299.23 319.24
  A 1.29 1.24 -44.5 0 1 300.51 319.23
  L 522.57 447.43
  A 0.79 0.79 0.0 0 1 522.83 448.55
  Q 508.81 469.29 491.41 487.27
  Q 491.07 487.62 490.64 487.38
  L 394.66 431.88
  A 1.67 1.67 0.0 0 0 392.98 431.88
  L 254.44 511.88
  Q 253.67 512.33 254.55 512.52
  Z"
/>
</svg>
